<mxfile host="app.diagrams.net" modified="2022-11-07T09:43:30.204Z" agent="5.0 (Windows NT 10.0; Win64; x64) AppleWebKit/537.36 (KHTML, like Gecko) Chrome/105.0.0.0 Safari/537.36" etag="O_yh0v02JCkceR5UXSWE" version="20.4.2" type="github">
  <diagram id="C5RBs43oDa-KdzZeNtuy" name="Page-1">
    <mxGraphModel dx="1422" dy="706" grid="0" gridSize="10" guides="1" tooltips="1" connect="1" arrows="1" fold="1" page="1" pageScale="1" pageWidth="827" pageHeight="1169" math="0" shadow="0">
      <root>
        <mxCell id="WIyWlLk6GJQsqaUBKTNV-0" />
        <mxCell id="WIyWlLk6GJQsqaUBKTNV-1" parent="WIyWlLk6GJQsqaUBKTNV-0" />
        <mxCell id="F3IM9WSZjQUaXmSakqzU-1" value="" style="rounded=1;whiteSpace=wrap;html=1;fillColor=#F9F9F9;arcSize=4;shadow=0;strokeWidth=3;strokeColor=#F9F9F9;" parent="WIyWlLk6GJQsqaUBKTNV-1" vertex="1">
          <mxGeometry x="111" y="380" width="634" height="144" as="geometry" />
        </mxCell>
        <mxCell id="F3IM9WSZjQUaXmSakqzU-2" value="&lt;font style=&quot;font-size: 15px&quot; face=&quot;Comic Sans MS&quot;&gt;&lt;span&gt;&lt;span&gt;&lt;span style=&quot;font-weight: normal&quot;&gt;Deploy&lt;/span&gt;&lt;br&gt;GraphSQL&lt;br&gt;&lt;/span&gt;&lt;/span&gt;&lt;/font&gt;" style="rounded=1;whiteSpace=wrap;html=1;shadow=0;strokeWidth=3;fillColor=#FFFFFF;strokeColor=#EEEEEE;fontColor=#5F39DD;fontStyle=1;gradientColor=#ffffff;" parent="WIyWlLk6GJQsqaUBKTNV-1" vertex="1">
          <mxGeometry x="154" y="439" width="120" height="60" as="geometry" />
        </mxCell>
        <mxCell id="F3IM9WSZjQUaXmSakqzU-3" value="&lt;font style=&quot;font-size: 15px&quot; face=&quot;Comic Sans MS&quot;&gt;&lt;span&gt;&lt;span&gt;&lt;span style=&quot;font-weight: normal&quot;&gt;Deploy&lt;/span&gt;&lt;br&gt;GraphSQL&lt;br&gt;&lt;/span&gt;&lt;/span&gt;&lt;/font&gt;" style="rounded=1;whiteSpace=wrap;html=1;shadow=0;strokeWidth=3;fillColor=#FFFFFF;strokeColor=#EEEEEE;fontColor=#5F39DD;fontStyle=1;gradientColor=#ffffff;" parent="WIyWlLk6GJQsqaUBKTNV-1" vertex="1">
          <mxGeometry x="354" y="439" width="120" height="60" as="geometry" />
        </mxCell>
        <mxCell id="F3IM9WSZjQUaXmSakqzU-4" value="&lt;font style=&quot;font-size: 15px&quot; face=&quot;Comic Sans MS&quot;&gt;&lt;span&gt;&lt;span&gt;&lt;span style=&quot;font-weight: normal&quot;&gt;Deploy&lt;/span&gt;&lt;br&gt;GraphSQL&lt;br&gt;&lt;/span&gt;&lt;/span&gt;&lt;/font&gt;" style="rounded=1;whiteSpace=wrap;html=1;shadow=0;strokeWidth=3;fillColor=#FFFFFF;strokeColor=#EEEEEE;fontColor=#5F39DD;fontStyle=1;gradientColor=#ffffff;" parent="WIyWlLk6GJQsqaUBKTNV-1" vertex="1">
          <mxGeometry x="554" y="439" width="120" height="60" as="geometry" />
        </mxCell>
        <mxCell id="Sf5FxCxOkganezNXafmV-0" style="edgeStyle=orthogonalEdgeStyle;rounded=1;orthogonalLoop=1;jettySize=auto;html=1;exitX=1;exitY=0.5;exitDx=0;exitDy=0;entryX=0;entryY=0.5;entryDx=0;entryDy=0;fontFamily=Comic Sans MS;fontSize=16;fontColor=#FFFFFF;strokeColor=#216EFF;strokeWidth=2;endArrow=none;endFill=0;" parent="WIyWlLk6GJQsqaUBKTNV-1" source="Sf5FxCxOkganezNXafmV-3" target="Sf5FxCxOkganezNXafmV-5" edge="1">
          <mxGeometry relative="1" as="geometry" />
        </mxCell>
        <mxCell id="Sf5FxCxOkganezNXafmV-1" style="edgeStyle=orthogonalEdgeStyle;rounded=1;orthogonalLoop=1;jettySize=auto;html=1;exitX=1;exitY=0.5;exitDx=0;exitDy=0;fontFamily=Comic Sans MS;fontSize=16;fontColor=#FFFFFF;strokeColor=#216EFF;strokeWidth=2;endArrow=none;endFill=0;" parent="WIyWlLk6GJQsqaUBKTNV-1" source="Sf5FxCxOkganezNXafmV-3" target="Sf5FxCxOkganezNXafmV-7" edge="1">
          <mxGeometry relative="1" as="geometry" />
        </mxCell>
        <mxCell id="Sf5FxCxOkganezNXafmV-2" style="edgeStyle=orthogonalEdgeStyle;rounded=1;orthogonalLoop=1;jettySize=auto;html=1;exitX=1;exitY=0.5;exitDx=0;exitDy=0;entryX=0;entryY=0.5;entryDx=0;entryDy=0;fontFamily=Comic Sans MS;fontSize=16;fontColor=#FFFFFF;strokeColor=#216EFF;strokeWidth=2;endArrow=none;endFill=0;" parent="WIyWlLk6GJQsqaUBKTNV-1" source="Sf5FxCxOkganezNXafmV-3" target="Sf5FxCxOkganezNXafmV-9" edge="1">
          <mxGeometry relative="1" as="geometry" />
        </mxCell>
        <mxCell id="Sf5FxCxOkganezNXafmV-3" value="&lt;font color=&quot;#ffffff&quot; style=&quot;font-size: 16px&quot; face=&quot;Comic Sans MS&quot;&gt;topic_total&lt;/font&gt;" style="rounded=1;whiteSpace=wrap;html=1;fillColor=#216EFF;strokeColor=#216EFF;" parent="WIyWlLk6GJQsqaUBKTNV-1" vertex="1">
          <mxGeometry x="157" y="184" width="120" height="60" as="geometry" />
        </mxCell>
        <mxCell id="Sf5FxCxOkganezNXafmV-4" style="edgeStyle=orthogonalEdgeStyle;rounded=1;orthogonalLoop=1;jettySize=auto;html=1;exitX=1;exitY=0.5;exitDx=0;exitDy=0;fontFamily=Comic Sans MS;fontSize=16;fontColor=#000000;strokeColor=#216EFF;strokeWidth=2;endArrow=none;endFill=0;" parent="WIyWlLk6GJQsqaUBKTNV-1" source="Sf5FxCxOkganezNXafmV-5" edge="1">
          <mxGeometry relative="1" as="geometry">
            <mxPoint x="549" y="130" as="targetPoint" />
          </mxGeometry>
        </mxCell>
        <mxCell id="Sf5FxCxOkganezNXafmV-5" value="&lt;font style=&quot;font-size: 16px&quot; face=&quot;Comic Sans MS&quot;&gt;ruleA&lt;/font&gt;" style="rounded=1;whiteSpace=wrap;html=1;fillColor=#EEEFF1;strokeColor=#EEEFF1;fontColor=#000000;" parent="WIyWlLk6GJQsqaUBKTNV-1" vertex="1">
          <mxGeometry x="364" y="100" width="120" height="60" as="geometry" />
        </mxCell>
        <mxCell id="Sf5FxCxOkganezNXafmV-6" style="edgeStyle=orthogonalEdgeStyle;rounded=1;orthogonalLoop=1;jettySize=auto;html=1;exitX=1;exitY=0.5;exitDx=0;exitDy=0;fontFamily=Comic Sans MS;fontSize=16;fontColor=#000000;strokeColor=#216EFF;strokeWidth=2;endArrow=none;endFill=0;" parent="WIyWlLk6GJQsqaUBKTNV-1" source="Sf5FxCxOkganezNXafmV-7" edge="1">
          <mxGeometry relative="1" as="geometry">
            <mxPoint x="549" y="214" as="targetPoint" />
          </mxGeometry>
        </mxCell>
        <mxCell id="Sf5FxCxOkganezNXafmV-7" value="&lt;font style=&quot;font-size: 16px&quot; face=&quot;Comic Sans MS&quot;&gt;ruleB&lt;/font&gt;" style="rounded=1;whiteSpace=wrap;html=1;fillColor=#EEEFF1;strokeColor=#EEEFF1;fontColor=#000000;" parent="WIyWlLk6GJQsqaUBKTNV-1" vertex="1">
          <mxGeometry x="364" y="184" width="120" height="60" as="geometry" />
        </mxCell>
        <mxCell id="Sf5FxCxOkganezNXafmV-8" style="edgeStyle=orthogonalEdgeStyle;rounded=1;orthogonalLoop=1;jettySize=auto;html=1;exitX=1;exitY=0.5;exitDx=0;exitDy=0;fontFamily=Comic Sans MS;fontSize=16;fontColor=#000000;strokeColor=#216EFF;strokeWidth=2;endArrow=none;endFill=0;" parent="WIyWlLk6GJQsqaUBKTNV-1" source="Sf5FxCxOkganezNXafmV-9" edge="1">
          <mxGeometry relative="1" as="geometry">
            <mxPoint x="544" y="298" as="targetPoint" />
          </mxGeometry>
        </mxCell>
        <mxCell id="Sf5FxCxOkganezNXafmV-9" value="&lt;font style=&quot;font-size: 16px&quot; face=&quot;Comic Sans MS&quot;&gt;ruleC&lt;/font&gt;" style="rounded=1;whiteSpace=wrap;html=1;fillColor=#EEEFF1;strokeColor=#EEEFF1;fontColor=#000000;" parent="WIyWlLk6GJQsqaUBKTNV-1" vertex="1">
          <mxGeometry x="364" y="268" width="120" height="60" as="geometry" />
        </mxCell>
        <mxCell id="Sf5FxCxOkganezNXafmV-10" value="TopicA" style="text;html=1;align=center;verticalAlign=middle;resizable=0;points=[];autosize=1;strokeColor=none;fillColor=none;fontSize=16;fontFamily=Comic Sans MS;fontColor=#000000;" parent="WIyWlLk6GJQsqaUBKTNV-1" vertex="1">
          <mxGeometry x="546" y="115" width="62" height="23" as="geometry" />
        </mxCell>
        <mxCell id="Sf5FxCxOkganezNXafmV-11" value="TopicB" style="text;html=1;align=center;verticalAlign=middle;resizable=0;points=[];autosize=1;strokeColor=none;fillColor=none;fontSize=16;fontFamily=Comic Sans MS;fontColor=#000000;" parent="WIyWlLk6GJQsqaUBKTNV-1" vertex="1">
          <mxGeometry x="544" y="199" width="61" height="23" as="geometry" />
        </mxCell>
        <mxCell id="Sf5FxCxOkganezNXafmV-12" value="TopicC" style="text;html=1;align=center;verticalAlign=middle;resizable=0;points=[];autosize=1;strokeColor=none;fillColor=none;fontSize=16;fontFamily=Comic Sans MS;fontColor=#000000;" parent="WIyWlLk6GJQsqaUBKTNV-1" vertex="1">
          <mxGeometry x="545" y="286.5" width="60" height="23" as="geometry" />
        </mxCell>
        <mxCell id="mQhqAHZGWUGWX5Z9emMl-1" value="" style="html=1;rounded=0;shadow=0;glass=0;sketch=0;fontFamily=Comic Sans MS;fontSize=16;fontColor=#FFFFFF;strokeColor=#F9F9F9;strokeWidth=3;fillColor=#F9F9F9;" vertex="1" parent="WIyWlLk6GJQsqaUBKTNV-1">
          <mxGeometry x="62.5" y="587" width="723" height="268" as="geometry" />
        </mxCell>
        <mxCell id="mQhqAHZGWUGWX5Z9emMl-2" value="开平应用管理" style="rounded=1;whiteSpace=wrap;html=1;shadow=0;glass=0;sketch=0;fontFamily=Comic Sans MS;fontSize=18;fontColor=#216EFF;strokeColor=#EEEEEE;strokeWidth=3;fillColor=#FFFFFF;fontStyle=0;align=center;" vertex="1" parent="WIyWlLk6GJQsqaUBKTNV-1">
          <mxGeometry x="265.5" y="693" width="120" height="60" as="geometry" />
        </mxCell>
        <mxCell id="mQhqAHZGWUGWX5Z9emMl-3" value="开平服务库管理" style="rounded=1;whiteSpace=wrap;html=1;shadow=0;glass=0;sketch=0;fontFamily=Comic Sans MS;fontSize=18;fontColor=#216EFF;strokeColor=#EEEEEE;strokeWidth=3;fillColor=#FFFFFF;fontStyle=0;align=center;" vertex="1" parent="WIyWlLk6GJQsqaUBKTNV-1">
          <mxGeometry x="76" y="782" width="691" height="52" as="geometry" />
        </mxCell>
        <mxCell id="mQhqAHZGWUGWX5Z9emMl-4" value="开平卡片管理" style="rounded=1;whiteSpace=wrap;html=1;shadow=0;glass=0;sketch=0;fontFamily=Comic Sans MS;fontSize=18;fontColor=#216EFF;strokeColor=#EEEEEE;strokeWidth=3;fillColor=#FFFFFF;fontStyle=0;align=center;" vertex="1" parent="WIyWlLk6GJQsqaUBKTNV-1">
          <mxGeometry x="455.5" y="693" width="120" height="60" as="geometry" />
        </mxCell>
        <mxCell id="mQhqAHZGWUGWX5Z9emMl-5" value="" style="html=1;rounded=0;shadow=0;glass=0;sketch=0;fontFamily=Comic Sans MS;fontSize=16;fontColor=#FFFFFF;strokeColor=#F9F9F9;strokeWidth=3;fillColor=#F9F9F9;" vertex="1" parent="WIyWlLk6GJQsqaUBKTNV-1">
          <mxGeometry x="62.5" y="885" width="455" height="174" as="geometry" />
        </mxCell>
        <mxCell id="mQhqAHZGWUGWX5Z9emMl-6" value="服务中台" style="rounded=1;whiteSpace=wrap;html=1;shadow=0;glass=0;sketch=0;fontFamily=Comic Sans MS;fontSize=18;fontColor=#216EFF;strokeColor=#EEEEEE;strokeWidth=3;fillColor=#FFFFFF;fontStyle=0;align=center;" vertex="1" parent="WIyWlLk6GJQsqaUBKTNV-1">
          <mxGeometry x="76" y="911" width="204.5" height="50" as="geometry" />
        </mxCell>
        <mxCell id="mQhqAHZGWUGWX5Z9emMl-7" value="服务库" style="rounded=1;whiteSpace=wrap;html=1;shadow=0;glass=0;sketch=0;fontFamily=Comic Sans MS;fontSize=18;fontColor=#216EFF;strokeColor=#EEEEEE;strokeWidth=3;fillColor=#FFFFFF;fontStyle=0;align=center;" vertex="1" parent="WIyWlLk6GJQsqaUBKTNV-1">
          <mxGeometry x="76" y="987" width="412.5" height="47" as="geometry" />
        </mxCell>
        <mxCell id="mQhqAHZGWUGWX5Z9emMl-8" value="通知中心" style="rounded=1;whiteSpace=wrap;html=1;shadow=0;glass=0;sketch=0;fontFamily=Comic Sans MS;fontSize=18;fontColor=#216EFF;strokeColor=#EEEEEE;strokeWidth=3;fillColor=#FFFFFF;fontStyle=0;align=center;" vertex="1" parent="WIyWlLk6GJQsqaUBKTNV-1">
          <mxGeometry x="299.5" y="913" width="187" height="49" as="geometry" />
        </mxCell>
        <mxCell id="mQhqAHZGWUGWX5Z9emMl-9" value="开放平台portal" style="rounded=1;whiteSpace=wrap;html=1;shadow=0;glass=0;sketch=0;fontFamily=Comic Sans MS;fontSize=18;fontColor=#216EFF;strokeColor=#EEEEEE;strokeWidth=3;fillColor=#FFFFFF;fontStyle=0;align=center;" vertex="1" parent="WIyWlLk6GJQsqaUBKTNV-1">
          <mxGeometry x="73.5" y="609" width="692" height="60" as="geometry" />
        </mxCell>
        <mxCell id="mQhqAHZGWUGWX5Z9emMl-10" value="开平账号" style="rounded=1;whiteSpace=wrap;html=1;shadow=0;glass=0;sketch=0;fontFamily=Comic Sans MS;fontSize=18;fontColor=#216EFF;strokeColor=#EEEEEE;strokeWidth=3;fillColor=#FFFFFF;fontStyle=0;align=center;" vertex="1" parent="WIyWlLk6GJQsqaUBKTNV-1">
          <mxGeometry x="76" y="693" width="120" height="60" as="geometry" />
        </mxCell>
        <mxCell id="mQhqAHZGWUGWX5Z9emMl-11" value="开平其他" style="rounded=1;whiteSpace=wrap;html=1;shadow=0;glass=0;sketch=0;fontFamily=Comic Sans MS;fontSize=18;fontColor=#216EFF;strokeColor=#EEEEEE;strokeWidth=3;fillColor=#FFFFFF;fontStyle=0;align=center;" vertex="1" parent="WIyWlLk6GJQsqaUBKTNV-1">
          <mxGeometry x="645.5" y="693" width="120" height="60" as="geometry" />
        </mxCell>
        <mxCell id="mQhqAHZGWUGWX5Z9emMl-12" value="" style="html=1;rounded=0;shadow=0;glass=0;sketch=0;fontFamily=Comic Sans MS;fontSize=16;fontColor=#FFFFFF;strokeColor=#F9F9F9;strokeWidth=3;fillColor=#F9F9F9;" vertex="1" parent="WIyWlLk6GJQsqaUBKTNV-1">
          <mxGeometry x="537.5" y="882" width="247" height="180" as="geometry" />
        </mxCell>
        <mxCell id="mQhqAHZGWUGWX5Z9emMl-13" value="策略系统" style="rounded=1;whiteSpace=wrap;html=1;shadow=0;glass=0;sketch=0;fontFamily=Comic Sans MS;fontSize=18;fontColor=#216EFF;strokeColor=#EEEEEE;strokeWidth=3;fillColor=#FFFFFF;fontStyle=0;align=center;" vertex="1" parent="WIyWlLk6GJQsqaUBKTNV-1">
          <mxGeometry x="580.5" y="895.5" width="179" height="47" as="geometry" />
        </mxCell>
        <mxCell id="mQhqAHZGWUGWX5Z9emMl-14" value="算法引擎" style="rounded=1;whiteSpace=wrap;html=1;shadow=0;glass=0;sketch=0;fontFamily=Comic Sans MS;fontSize=18;fontColor=#216EFF;strokeColor=#EEEEEE;strokeWidth=3;fillColor=#FFFFFF;fontStyle=0;align=center;" vertex="1" parent="WIyWlLk6GJQsqaUBKTNV-1">
          <mxGeometry x="580.5" y="949" width="179" height="47" as="geometry" />
        </mxCell>
        <mxCell id="mQhqAHZGWUGWX5Z9emMl-15" value="数据接口" style="rounded=1;whiteSpace=wrap;html=1;shadow=0;glass=0;sketch=0;fontFamily=Comic Sans MS;fontSize=18;fontColor=#216EFF;strokeColor=#EEEEEE;strokeWidth=3;fillColor=#FFFFFF;fontStyle=0;align=center;" vertex="1" parent="WIyWlLk6GJQsqaUBKTNV-1">
          <mxGeometry x="580.5" y="1003.5" width="179" height="47" as="geometry" />
        </mxCell>
        <mxCell id="mQhqAHZGWUGWX5Z9emMl-16" value="服务库系统" style="text;html=1;strokeColor=none;fillColor=none;align=center;verticalAlign=middle;whiteSpace=wrap;rounded=0;fontColor=#216EFF;fontSize=16;" vertex="1" parent="WIyWlLk6GJQsqaUBKTNV-1">
          <mxGeometry x="44" y="885" width="157" height="28" as="geometry" />
        </mxCell>
      </root>
    </mxGraphModel>
  </diagram>
</mxfile>
